<svg width="1500" height="388" viewBox="0 0 1500 388" fill="none" xmlns="http://www.w3.org/2000/svg">
<g clip-path="url(#clip0_1459_12334)">
<path d="M111.8 201.5C114.4 203.2 117.4 204 120.5 204.5C123.6 205 126.7 205.1 129.9 204.8C136.2 204.3 142.3 202.5 147.7 199.8C153.1 197 157.8 193.1 160.9 188.4C164 183.7 165.6 178.2 165.7 172.5C165.9 166.8 164.8 160.9 162.8 155.2C161.8 152.3 160.7 149.5 159.4 146.7C159.1 146 158.8 145.3 158.4 144.6L157.4 142.7C156.6 141.2 155.8 139.6 155.1 138.6C153.6 136.3 151.9 133.8 149.9 131.6C148 129.4 146 127.3 143.7 125.3C139.3 121.4 134.4 118.1 129.1 115.4C108.1 104.6 81.7 104.1 62.5 115.1C52.9 120.5 45.1 128.6 39.8 138.4C34.5 148.2 31.3 159.6 30 171.4C29.3 177.3 29.1 183.4 29.3 189.5C29.4 192.6 29.5 195.6 29.8 198.7L30 201V201.6C30 201.2 30 201.7 30 201.7V202L30.1 203.2C30.3 204.8 30.4 206.6 30.6 208.1L31.2 212.5C31.4 214 31.7 215.5 32 217C32.2 218.5 32.6 220 32.9 221.5C33.2 223 33.5 224.5 33.9 225.9C35.3 231.8 37.1 237.6 39.3 243.1C43.6 254.3 49.4 264.7 56.6 274C63.8 283.3 72.4 291.5 82.1 298.5C91.8 305.5 102.5 311.2 113.8 316C125.1 320.8 137 324.3 149.2 327.1C161.4 329.9 174 331.7 186.6 333C192.9 333.6 199.3 334 205.7 334.3C212.1 334.6 218.5 334.7 225 334.7C250.8 334.5 276.8 332.1 302.6 328C328.5 323.9 354.1 317.9 379.4 310.5C430 295.6 479.1 274.2 524.6 246.9C547.4 233.2 569.3 218.1 590 201.5C600.4 193.2 610.5 184.6 620.2 175.6C630 166.7 639.4 157.3 648.5 147.7C657.6 138.1 666.2 128 674.5 117.8C682.8 107.5 690.6 96.8 698 85.9C712.8 64.1 725.5 40.9 736.1 17L744 0L754.4 16.6C768.2 38.6 784 59.5 800.6 79.5C817.3 99.5 835 118.7 853.6 137C862.9 146.1 872.4 155 882.1 163.7C891.8 172.4 901.7 180.8 911.8 189C932 205.4 952.9 220.7 974.7 234.8C996.5 248.8 1019 261.7 1042.2 273.1C1053.8 278.8 1065.5 284.2 1077.4 289.2C1089.3 294.1 1101.3 298.8 1113.5 303.1C1125.6 307.4 1137.9 311.2 1150.3 314.7C1162.7 318.3 1175.2 321.4 1187.7 324.1C1212.8 329.6 1238.3 333.6 1263.9 336.1L1273.5 337L1283.1 337.7L1287.9 338L1292.6 338.2L1296.9 338.3H1301.4C1313.4 338.1 1325.5 336.9 1337.4 334.6C1349.3 332.3 1360.9 328.8 1372.1 324.3C1383.3 319.8 1394.1 314.3 1404.2 307.7C1424.3 294.5 1441.6 277.2 1453.5 256.6C1459.5 246.3 1464 235.3 1467 223.7C1470 212.2 1471.7 200.1 1471.5 188.1L1471.3 184.3L1470.8 180.2L1470.1 176.1L1469.1 172C1467.7 166.6 1465.6 161.3 1463 156.2C1457.7 146.1 1450.1 136.9 1441.1 129.5C1432 122 1421.4 116.4 1410.1 113C1404.4 111.3 1398.6 110.2 1392.7 109.7L1388.3 109.5H1383.9L1379.5 109.8C1379.5 109.8 1379.1 109.8 1379.4 109.8H1379.1L1378.5 109.9L1377.3 110C1376.5 110.1 1376 110.2 1375.4 110.3C1364.7 112.1 1354.4 118.4 1346.7 127.2C1339 136.1 1333.6 147.5 1331.9 159.4C1330.1 171.3 1331.9 184 1338.6 194.2C1341.9 199.3 1346.3 203.8 1351.5 207.4C1356.7 211 1362.6 213.6 1368.8 215.6L1367.9 219.2C1361.2 218 1354.5 215.9 1348.4 212.6C1342.2 209.3 1336.5 204.8 1332 199.1C1327.5 193.5 1324.2 186.8 1322.2 179.8C1320.2 172.8 1319.5 165.5 1319.9 158.2C1320.8 143.7 1325.8 129.5 1334.5 117.5C1343.1 105.5 1356.1 95.8 1371.4 92C1400.9 85.3 1431.7 93.3 1455.6 110.7C1479.5 128.1 1497.4 155.4 1499.8 187.3C1500.7 201.8 1499.7 216.4 1496.7 230.7C1493.7 245 1488.8 259 1482 272.1C1475.3 285.2 1466.8 297.3 1457 308.2C1452.1 313.7 1446.9 318.8 1441.5 323.7C1436 328.5 1430.3 333 1424.4 337.2C1400.7 354 1373.6 365.6 1345.4 371.9C1331.3 375.1 1316.8 376.9 1302.3 377.3C1300.5 377.4 1298.7 377.4 1296.9 377.4L1291.2 377.3L1286 377.1L1280.9 376.8L1270.7 376.2L1260.5 375.4C1246.9 374.2 1233.3 372.6 1219.7 370.4C1206.2 368.3 1192.7 365.9 1179.3 362.7C1152.6 356.7 1126.2 348.9 1100.6 339.3C1087.8 334.5 1075.1 329.4 1062.6 323.8C1050.1 318.2 1037.8 312.2 1025.7 305.9C1001.5 293.3 978.2 279.1 955.7 263.8C933.2 248.5 911.7 231.8 891.1 214.1C880.8 205.3 870.8 196.1 861 186.7C851.2 177.3 841.8 167.6 832.6 157.7C823.4 147.8 814.5 137.6 805.8 127.2C797.2 116.8 788.9 106.1 780.8 95.2C764.8 73.4 749.9 50.8 736.9 26.8L754.9 26.1C748.6 38.3 741.8 50.2 734.5 61.7C727.2 73.2 719.4 84.4 711.3 95.3C703.1 106.2 694.6 116.7 685.6 126.9C676.7 137.1 667.4 147 657.9 156.6C638.8 175.8 618.5 193.7 597.3 210.4C586.7 218.7 575.9 226.8 564.9 234.6C553.8 242.3 542.6 249.9 531.2 257.1C519.8 264.3 508.2 271.3 496.4 277.9C484.7 284.6 472.7 291 460.6 297C436.4 309.2 411.6 320.2 386.2 329.8C360.7 339.4 334.6 347.5 307.9 353.7C281.2 359.9 253.9 364.1 226.1 365.5C212.2 366.2 198.3 366.2 184.2 365.2C170.2 364.3 156.2 362.4 142.2 359.5C114.4 353.6 86.7 342.8 62.8 325.1C50.9 316.2 40 305.7 31.1 293.6C22.1 281.6 15.1 268.1 10.1 254.2C7.6 247.2 5.7 240.1 4.2 232.9C3.8 231.1 3.5 229.3 3.1 227.5C2.8 225.7 2.4 223.9 2.2 222.1C2 220.3 1.7 218.5 1.5 216.7L0.9 211.1C0.7 209.3 0.6 207.7 0.5 206L0.4 204.7L0.3 204V203.3L0.2 200.6C0 197.1 0 193.5 0 189.8C0.1 182.5 0.6 175.2 1.8 167.9C4 153.3 8.5 138.4 16.7 125C24.9 111.7 36.9 100.2 51.1 93.3C65.3 86.4 81.1 83.8 96.2 84.9C111.3 86.1 126 90.7 138.8 98.4C151.6 106.2 162.6 117.1 169.6 130.7C170.6 132.6 171.2 134 171.9 135.6C172.1 136.1 172 135.9 172.1 136.1L172.2 136.4L172.4 137L172.9 138.3C173.2 139.1 173.5 140 173.8 140.8C175 144.2 176.1 147.7 177 151.2C178.6 158.3 179.5 165.9 178.4 173.6C177.5 181.3 174.3 188.9 169.4 194.8C164.4 200.8 157.9 205 151.1 207.6C144.3 210.2 137 211.3 129.9 210.9C126.3 210.7 122.8 210.2 119.3 209.2C115.9 208.2 112.4 206.6 109.7 204.3L111.8 201.5Z" fill="black"/>
<path d="M749.2 218.8C749.5 218.6 756.7 212 770 199.9C783.8 187.7 803.6 169.5 830 147.4C833.3 144.7 836.7 141.9 840.2 139C842 137.6 843.7 136.1 845.5 134.6C847.3 133.2 849.2 131.7 851.1 130.3C854.9 127.4 858.7 124.4 862.6 121.3C866.6 118.4 870.8 115.4 875 112.3C877.1 110.8 879.2 109.2 881.4 107.7C883.6 106.2 885.9 104.7 888.1 103.2C892.6 100.2 897.2 97 902.1 94.1C904.5 92.6 907 91.1 909.4 89.6C911.9 88.1 914.3 86.5 916.9 85.1C922.1 82.3 927.4 79.4 932.8 76.6C954.7 65.7 979.7 56.5001 1007.4 51.7001C1010.9 51.2001 1014.4 50.7 1017.9 50.1C1019.7 49.9 1021.4 49.5001 1023.2 49.4001C1025 49.3001 1026.8 49.1 1028.6 49C1032.2 48.7 1035.8 48.5001 1039.4 48.2001L1040.8 48.1H1041.5C1041.5 48.1 1042.2 48.1 1042.4 48.1L1045 48C1046.7 48 1048.5 47.9001 1050.3 47.9001C1053.9 47.9001 1057.8 48 1061.6 48C1065.3 48.2 1069.1 48.3 1072.8 48.6C1080.3 49.2 1087.9 50.0001 1095.6 51.2001C1097.5 51.5001 1099.4 51.8 1101.4 52.1C1103.3 52.5 1105.2 52.9001 1107.2 53.2001C1111.1 53.9001 1114.9 54.9 1118.8 55.8C1122.7 56.7 1126.5 57.9001 1130.4 58.9001C1134.2 60.1001 1138.1 61.3001 1141.9 62.7001C1157.2 68.2001 1172.6 75.2001 1187 84.8001C1201.5 94.1001 1215.1 106.1 1226.6 120.4C1232.4 127.6 1237.3 135.5 1241.7 143.8C1245.9 152.2 1249.3 161.1 1251.9 170.3C1254.2 179.5 1255.8 189 1256.4 198.5C1256.8 208 1256.6 217.6 1255.4 226.9C1255 230.9 1254 236.1 1253.1 240.9C1252.6 243.3 1252 245.6 1251.4 247.9C1250.8 250.2 1250.3 252.5 1249.5 254.8C1246.9 264 1243 273 1238.6 281.6C1234.2 290.3 1228.6 298.4 1222.5 306C1219.5 309.8 1216.1 313.4 1212.8 316.9L1207.6 322C1205.9 323.7 1204 325.2 1202.1 326.8C1194.7 333.1 1186.8 338.8 1178.5 343.7C1170.2 348.6 1161.6 353 1152.8 356.8C1143.9 360.5 1134.9 363.7 1125.7 366.4C1116.5 369.1 1107.1 371.2 1097.7 373C1078.8 376.4 1059.6 378.2 1040.4 378.4H1033.2H1032.1H1031.2L1029.4 378.3L1025.8 378.2C1023.4 378.1 1020.8 377.8 1018.3 377.6C1015.7 377.4 1013.4 376.9 1010.9 376.6C1001.1 375.1 991.6 372.6 982.2 369.6C963.5 363.5 945.8 355.1 928.7 345.7C911.6 336.3 895 325.9 878.8 314.9C870.7 309.5 862.7 303.9 854.7 298.2C846.7 292.6 838.8 286.8 830.9 281.1C815 269.6 799.3 257.9 783.6 246.2C767.8 234.6 752.1 223 736.2 211.6C720.3 200.2 704.4 189 688.2 178.2C672.1 167.3 655.8 156.9 639.3 147.1C622.9 137.2 606.2 127.9 589.2 119.6C572.3 111.1 555.1 103.7 537.7 97.4001C520.3 91.1001 502.6 86.2001 484.9 82.9001C476 81.4001 467.2 80 458.3 79.5C453.9 79 449.4 79.0001 445 78.8001C442.8 78.7001 440.6 78.8001 438.4 78.8001H435.1C435 78.8001 434.2 78.8001 434.6 78.8001H433.7L431.9 78.9001L424.8 79.2L421.3 79.3001C420.1 79.3001 419.1 79.5 418 79.5C413.6 79.9 409.4 80 405 80.6C400.6 81.1 396.2 81.6001 391.9 82.3001L385.4 83.3001L379 84.6C362.1 88 346.1 93.5 331.8 101C317.6 108.6 305.3 118.4 295.6 130.3C285.9 142.1 278.8 156 273.9 170.8C269 185.6 266.3 201.4 265.1 217.4C265.1 218.2 265.1 217.2 265.1 217.6V218.4L265 220L264.8 223.2C264.8 223.8 264.8 224.2 264.8 224.6V225.8V228.2C264.8 229.8 265 231.7 265.1 233.5C265.2 235.3 265.5 237.1 265.7 238.8C266.7 245.9 268.4 252.9 270.8 259.6C273.2 266.3 276.2 272.8 279.7 279C283.3 285.2 287.5 291 292.1 296.5C301.3 307.4 312.3 316.7 324.2 324.5C336.2 332.2 349 338.5 362.3 343.4C375.6 348.3 389.2 351.9 402.9 354.6C406.3 355.2 409.7 355.9 413.2 356.4C416.6 356.9 420 357.4 423.4 357.8C426.8 358.2 430.2 358.5 433.6 358.9L434.2 359C434.2 359 435.1 359.1 434.3 359.1L435.6 359.2L438.3 359.3C440.1 359.4 441.8 359.5 443.6 359.6C447.3 359.9 450.2 359.7 453.3 359.7C454.9 359.7 456.4 359.7 458 359.7C459.6 359.7 461.2 359.5 462.8 359.4C466 359.1 469.2 359 472.4 358.6C475.6 358.2 478.8 357.7 481.9 357.3C485.1 356.9 488.2 356.2 491.3 355.7C494.4 355.1 497.5 354.6 500.6 353.8C503.7 353.1 506.7 352.4 509.8 351.7C512.8 350.9 515.8 350.1 518.8 349.2C520.3 348.8 521.8 348.4 523.3 348C524.8 347.5 526.2 347.1 527.7 346.6C530.6 345.7 533.5 344.8 536.4 343.9C539.3 342.9 542.1 341.9 544.9 340.9C547.7 339.9 550.5 339 553.2 337.9C558.7 335.8 564.1 333.7 569.3 331.5C571.9 330.4 574.5 329.3 577.1 328.2C579.7 327 582.2 325.9 584.7 324.8C594.8 320.3 604.3 315.5 613.4 310.8C622.5 306 631.1 301.2 639.3 296.5C643.3 294.1 647.3 291.7 651.2 289.4C655 287 658.8 284.7 662.4 282.5C691.3 264.2 712.8 248.1 727.3 236.8C734.5 231.1 739.9 226.7 743.6 223.7C747.4 220.4 749.2 218.8 749.2 218.8ZM751.7 221.6C751.7 221.6 749.8 223.2 746.2 226.3C742.6 229.4 737.2 233.9 730 239.7C715.7 251.2 694.5 268 666.4 287.9C662.9 290.4 659.3 292.9 655.5 295.5C651.7 298 647.9 300.7 644 303.3C636.1 308.6 627.8 314.1 618.9 319.6C610.1 325.1 600.8 330.8 591 336.3C588.5 337.7 586.1 339.1 583.6 340.5C581.1 341.9 578.5 343.2 575.9 344.6C570.8 347.4 565.4 350 560 352.8C557.3 354.2 554.5 355.4 551.7 356.8C548.9 358.1 546.1 359.4 543.2 360.7C540.3 361.9 537.4 363.2 534.4 364.4C532.9 365 531.4 365.7 530 366.3C528.5 366.9 527 367.5 525.5 368C522.4 369.2 519.4 370.3 516.3 371.5C513.1 372.6 510 373.6 506.8 374.7C503.6 375.8 500.3 376.8 497 377.7C493.7 378.6 490.4 379.7 487 380.5C483.6 381.3 480.1 382.1 476.7 382.9C473.2 383.7 469.6 384.1 466.1 384.8C464.3 385.1 462.5 385.4 460.7 385.7C458.8 385.9 456.9 386.1 455 386.3C451.2 386.7 447.1 387.2 443.8 387.2C442 387.3 440.3 387.3 438.5 387.4L435.8 387.5H434.5H432.6C428.9 387.4 425.2 387.3 421.4 387.2C417.6 387 413.9 386.7 410.1 386.5C406.3 386.2 402.5 385.7 398.6 385.4C383.2 383.6 367.5 380.5 351.8 375.7C336.1 370.8 320.5 364.1 305.5 355.2C290.6 346.2 276.4 334.9 264.1 321.1C258 314.2 252.4 306.7 247.4 298.6C242.5 290.5 238.2 281.9 234.9 272.8C231.5 263.7 229 254.2 227.5 244.4C227.2 241.9 226.8 239.5 226.6 237C226.4 234.5 226.2 232.1 226.1 229.5L226 225.5V223.5C226 222.8 226 222.1 226 221.6L226.1 218.4L226.2 216.8V216L226.3 214.6C227.6 196.2 230.6 177.2 236.8 158.4C242.9 139.7 252.6 121.2 265.9 105.3C272.5 97.3001 280.1 90.1 288.4 83.7C296.6 77.3 305.4 71.7 314.6 67.1C333 57.8 352.6 51.8 372.3 48.3L379.7 47L387.1 46C392 45.3 397 44.9 401.9 44.5C406.8 44 412 43.9 417 43.6C418.2 43.6 419.6 43.5001 420.8 43.4001H424.3L431.4 43.3H433.2H434.1C435.1 43.3 434.9 43.3 435.4 43.3L439.2 43.4001C441.7 43.5001 444.3 43.5 446.8 43.6C451.8 44 456.9 44.2 461.9 44.8C472 45.8 481.9 47.5 491.9 49.5C511.6 53.8 531 59.6 549.6 67C587 81.7 621.7 101.9 654.5 124C687.3 146.3 718.4 170.8 748.8 195.7C764 208.1 779.1 220.7 794.1 233.3C809.2 245.7 824.3 258.2 839.5 270.3C847.1 276.3 854.8 282.3 862.5 288.1C870.3 293.9 878 299.7 885.9 305.2C893.8 310.8 901.8 316.1 909.8 321.3C917.8 326.5 926.1 331.4 934.4 336C942.7 340.7 951.2 345 959.8 348.8C968.4 352.6 977.1 356.1 986 358.8C994.9 361.5 1003.9 363.6 1012.9 364.8C1015.1 365 1017.5 365.4 1019.6 365.5L1022.9 365.7C1024 365.8 1025.1 365.9 1026.3 365.8H1029.9H1031.7H1032.6C1032.5 365.8 1033.1 365.8 1033.3 365.8L1040.3 365.5C1077.3 363.6 1113.6 355.1 1144.9 339.1C1152.7 335 1160.1 330.6 1167.1 325.6C1174.1 320.7 1180.6 315.2 1186.5 309.3C1187.9 307.8 1189.5 306.4 1190.9 304.8L1195 300.2C1197.6 297 1200.2 293.8 1202.4 290.4C1207 283.7 1211.1 276.7 1214.2 269.4C1217.4 262.1 1220 254.6 1221.8 246.9C1222.3 245 1222.7 243.1 1223 241.1C1223.3 239.2 1223.8 237.2 1224 235.3L1224.7 229.7L1224.9 228.3C1225 227.8 1225 227.2 1225 226.7L1225.2 223.5C1226.5 207.8 1224.9 192.7 1220.9 178.6C1218.7 171.6 1216 164.9 1212.7 158.5C1209.2 152.2 1205.3 146.2 1200.9 140.6C1191.9 129.4 1181 119.8 1169.1 111.8C1157.2 103.7 1144.3 97.2001 1131 91.9001C1117.8 86.5001 1104.1 82.6 1090.6 79.7C1083.8 78.2 1077 77 1070.2 76C1066.8 75.6 1063.4 75.2 1060.1 74.7C1056.8 74.4 1053.6 74.1001 1050.2 73.8001C1048.4 73.7001 1046.7 73.6 1044.9 73.5L1042.3 73.4001H1040C1036.7 73.4001 1033.4 73.3001 1030.1 73.3001C1028.5 73.3001 1026.8 73.3 1025.2 73.2C1023.6 73.2 1022 73.4 1020.3 73.5C1017.1 73.7 1013.9 73.9 1010.7 74.1C985.2 76 961.2 82.2 939.5 90.7C934.1 92.9 928.8 95.2001 923.6 97.4001C921 98.4001 918.5 99.8 916 101C913.5 102.2 911 103.4 908.5 104.7C903.5 107 898.9 109.8 894.2 112.4C891.9 113.7 889.6 115 887.3 116.3C885 117.6 882.9 119 880.7 120.3C876.4 123 872.1 125.7 867.9 128.3C863.8 131.1 859.8 133.7 855.9 136.4C854 137.7 852 139 850.1 140.3C848.2 141.7 846.4 143 844.6 144.3C841 147 837.4 149.5 834 152.1C806.7 172.7 786.5 190.5 772.7 202.5L751.7 221.6Z" fill="black"/>
</g>
<defs>
<clipPath id="clip0_1459_12334">
<rect width="1500" height="387.5" fill="white"/>
</clipPath>
</defs>
</svg>
