<svg width="849" height="276" viewBox="0 0 849 276" fill="none" xmlns="http://www.w3.org/2000/svg">
<path d="M301.7 268.8L294.1 252.2L290.3 243.9L288.4 239.8L287.9 238.8C287.4 237.8 287.3 237 287.6 236.6C287.9 236.2 288.3 236 288.7 236.1V235.7H282.3V236.1C282.6 236.1 283 236.2 283.5 236.6C284 237 284.1 237.4 284 238L281.7 244L278 252.3L270.7 268.9C269.7 271.2 268.9 272.7 268.3 273.4C267.7 274.1 266.6 274.5 264.9 274.7V275.1H271.1H277.3V274.7C274.5 274.7 272.9 274.2 272.7 273C272.4 271.9 273 269.8 274.3 266.9L276.2 262.5H292.4L295.2 268.9C296.1 271 296.3 272.5 295.7 273.3C295.1 274.2 293.7 274.6 291.6 274.6V275H299.5H307.3V274.6C305.4 274.8 303.5 272.9 301.7 268.8ZM276.8 260.5L284.2 242.8L291.6 260.5H276.8Z" fill="black"/>
<path d="M358.5 236.2H340.1H321.3V246.2H322.1C322.2 241.3 323.9 238.6 327.1 238.1H336.7V268.8C336.7 270.9 336.3 272.4 335.4 273.3C334.5 274.2 332.9 274.6 330.6 274.6V275H340.1H349.5V274.6C347.1 274.5 345.5 274.1 344.6 273.2C343.7 272.3 343.3 270.9 343.3 268.8V238.1H351C352.5 238.2 353.8 238.8 354.9 239.9C356 241 357 243.1 357.8 246.2H358.6L358.4 241.2L358.5 236.2Z" fill="black"/>
<path d="M408.8 268.8L401.2 252.2L397.4 243.9L395.5 239.8L395 238.8C394.5 237.8 394.4 237 394.7 236.6C395 236.2 395.4 236 395.8 236.1V235.7H389.4V236.1C389.7 236.1 390.1 236.2 390.6 236.6C391.1 237 391.2 237.4 391.1 238L388.8 244L385.1 252.3L377.8 268.9C376.8 271.2 376 272.7 375.4 273.4C374.8 274.1 373.7 274.5 372 274.7V275.1H378.2H384.4V274.7C381.6 274.7 380 274.2 379.8 273C379.5 271.9 380.1 269.8 381.4 266.9L383.3 262.5H399.5L402.3 268.9C403.2 271 403.4 272.5 402.8 273.3C402.2 274.2 400.8 274.6 398.7 274.6V275H406.6H414.4V274.6C412.5 274.8 410.7 272.9 408.8 268.8ZM384 260.5L391.4 242.8L398.8 260.5H384Z" fill="black"/>
<path d="M459.9 236C461.6 235.9 462.9 236.5 463.8 237.8C464.7 239.1 465.2 241.2 465.2 244.3V264L452.2 249.8L440 236.5L439.6 236.1C439.3 235.8 439 235.7 438.5 235.7H428.5V236.1C431.9 236.2 433.7 237.4 433.8 239.8V266.5C433.8 269.6 433.5 271.7 432.9 272.9C432.4 274.1 430.9 274.7 428.4 274.7V275.1H442.1V274.7C439.8 274.7 438.3 274.1 437.7 272.9C437.1 271.7 436.8 269.5 436.8 266.5V242.8L467.2 275.7H468.2V244.3C468.2 241.2 468.6 239.1 469.3 237.8C470.1 236.5 471.5 236 473.5 236.1V235.7H459.8V236H459.9Z" fill="black"/>
<path d="M510.8 257.9C512.5 257.7 513.8 258.1 514.7 258.9C515.6 259.7 516 261.2 516 263.4V269.8C516 270.5 515.9 271 515.7 271.3C515.5 271.6 515.1 272 514.5 272.2C512.5 273.1 510.2 273.5 507.8 273.5C503 273.5 499.2 271.9 496.5 268.8C493.8 265.7 492.4 261.3 492.4 255.8C492.4 250.3 493.7 245.9 496.3 242.7C498.9 239.5 502.4 237.9 507 237.9C510.2 237.9 513.1 238.7 515.6 240.3C518.1 241.9 519.9 244.4 520.9 247.9H521.5V236.8H520.6C520.2 237 519.5 237.2 518.6 237.4C517.7 237.6 516.7 237.6 515.7 237.2C512.1 236.1 508.9 235.5 506 235.5C500 235.5 495.2 237.4 491.3 241.1C487.4 244.8 485.5 249.7 485.5 255.6C485.5 261.7 487.5 266.6 491.4 270.2C495.3 273.8 500.6 275.6 507.2 275.6C512.2 275.6 517.2 274.3 522.1 271.7V262.1C522.2 260.4 522.5 259.3 523.1 258.7C523.8 257.9 524.9 257.6 526.3 257.7V257.3H511.1V257.9H510.8Z" fill="black"/>
<path d="M574 268.8L566.4 252.2L562.6 243.9L560.7 239.8L560.2 238.8C559.7 237.8 559.6 237 559.9 236.6C560.2 236.2 560.6 236 561 236.1V235.7H554.6V236.1C554.9 236.1 555.3 236.2 555.8 236.6C556.3 237 556.4 237.4 556.3 238L554 244L550.3 252.3L543 268.9C542 271.2 541.2 272.7 540.6 273.4C540 274.1 538.9 274.5 537.2 274.7V275.1H543.4H549.6V274.7C546.8 274.7 545.2 274.2 545 273C544.7 271.9 545.3 269.8 546.6 266.9L548.5 262.5H564.7L567.5 268.9C568.4 271 568.6 272.5 568 273.3C567.4 274.2 566 274.6 563.9 274.6V275H571.8H579.6V274.6C577.7 274.8 575.8 272.9 574 268.8ZM549.1 260.5L556.5 242.8L563.9 260.5H549.1Z" fill="black"/>
<path d="M209.1 78.8L208.2 77.9C205 79.8 202 81.1 199.2 81.8C196.4 82.5 193.2 82.8 189.6 82.8C186.9 82.8 184.2 82.7 181.7 82.4C179.1 82.1 176.5 81.8 173.9 81.4L170 80.9H169.9C173 74.7 176.2 68.6 179.6 62.7C182.9 56.8 186.5 51.4 190.3 46.6C194.9 40.7 199.7 35.9 204.8 32.3C209.9 28.7 215.3 26.9 221.1 26.9C221.8 26.9 222.6 26.9 223.4 27C224.2 27.1 225.1 27.2 226 27.4C227.1 27.6 228.2 27.8 229.4 28.1C230.6 28.4 231.8 28.8 233 29.2H232.9C234.8 29.9 236.7 30.4 238.7 30.9C240.7 31.4 242.5 31.6 244.2 31.6C246 31.6 247.2 31.1 247.9 30.2C248.6 29.3 248.9 28.6 248.9 28.2C248.9 27.1 248.5 26.3 247.6 25.6C246.7 24.9 245.6 24.6 244.1 24.6C243.7 24.6 243.2 24.6 242.7 24.6C242.2 24.6 241.7 24.6 241.1 24.7H241.2C240.5 24.8 239.7 24.8 238.9 24.9C238.1 24.9 237.2 25 236.3 25C235 25 233.5 24.9 231.9 24.8C230.3 24.6 228.6 24.3 226.7 23.8C225.3 23.4 223.7 22.9 221.9 22.3C220.1 21.7 218.2 21 216.2 20.2C210.7 17.9 204.9 15.6 198.8 13.2C192.7 10.8 186.4 8.7 180.1 6.7C173.7 4.8 167.3 3.2 160.9 2C154.5 0.8 148.2 0 142.1 0C133.6 0 125.2 0.9 117.1 2.6C109 4.3 101.4 7.1 94.4 10.8C87.4 14.5 81.2 19.3 75.9 25.2C70.5 31 66.3 38 63.3 46.2C62.1 46.6 60.8 47 59.6 47.4C58.4 47.8 57.2 48.2 56 48.6C50.3 50.8 45.1 53.4 40.3 56.4C35.5 59.4 30.9 63.1 26.4 67.4C18.2 75.4 11.7 84.6 7 94.8C2.3 105 0 115.8 0 127C0 131.8 0.4 136.3 1.3 140.4C2.2 144.5 3.7 148.8 5.8 153.2C8.6 158.4 12 162.8 16.1 166.4C20.2 170.1 24.6 173 29.4 175.3C34.2 177.6 39.3 179.3 44.7 180.3C50.1 181.3 55.6 181.8 61.2 181.8C68.8 181.8 76.4 181 84 179.3C91.6 177.7 98.8 175.2 105.6 172C112.5 168.8 118.8 164.7 124.6 159.9C130.4 155.1 135.4 149.6 139.5 143.3C142.6 138.5 145.7 132.9 148.7 126.5C151.7 120.1 154.9 113.2 158.2 105.9L166.7 87.3L169 87.5C171.5 87.9 174 88.2 176.3 88.4C178.6 88.6 180.9 88.7 183.3 88.7C188.5 88.7 193.2 87.9 197.5 86.2C201.8 84.9 205.7 82.3 209.1 78.8ZM162.1 80.1C161.5 80 161 80 160.4 80C159.9 80 159.4 80 158.9 80C155.4 80 152.2 80.4 149.2 81.2C146.2 82 143.3 83.2 140.7 85C139.1 86.2 137.8 87.4 136.8 88.6C135.7 89.9 134.7 91.4 133.7 93.2L134.6 93.9C135.8 92.8 137.1 91.7 138.4 90.8C139.7 89.9 141.1 89.1 142.8 88.3C144.8 87.4 146.7 86.8 148.5 86.6C150.3 86.4 152.2 86.2 154.1 86.2C154.8 86.2 155.6 86.2 156.4 86.2C157.2 86.2 157.9 86.2 158.7 86.3L153.6 95.3C150.1 101.6 146.7 107.7 143.2 113.4C138.6 121.2 133.3 129 127.4 136.7C121.4 144.4 114.9 151.4 107.7 157.6C100.5 163.8 92.7 168.8 84.4 172.7C76.1 176.6 67.3 178.5 58.1 178.5C53.3 178.5 48.5 177.9 43.9 176.8C39.3 175.6 34.9 173.9 30.8 171.6C26.7 169.3 23 166.4 19.6 162.9C16.3 159.4 13.5 155.3 11.3 150.6C9.5 146.7 8.2 143.1 7.5 139.7C6.8 136.3 6.5 132.6 6.5 128.7C6.5 123.3 7.1 118 8.3 112.8C9.5 107.6 11.2 102.7 13.4 97.9C15.6 93.1 18.2 88.6 21.3 84.3C24.4 80 27.8 76 31.5 72.3C33.6 70.2 35.6 68.4 37.7 66.6C39.8 64.9 41.9 63.3 44 61.9C46.2 60.5 48.5 59.1 50.8 57.9C53.2 56.7 55.7 55.5 58.4 54.3C58.8 54.1 59.2 54 59.6 53.9C60 53.8 60.4 53.6 60.8 53.5L61.2 53.4C60.8 55.1 60.5 56.8 60.4 58.3C60.3 59.9 60.2 61.5 60.2 63.2C60.2 72 62.3 79.7 66.4 86.2C70.5 91.8 75.4 95.9 81 98.5C86.6 101.1 92.6 102.4 99.1 102.4C103 102.4 106.3 102.1 109 101.4C111.8 100.7 114.6 99.5 117.4 97.9C120.7 95.9 123.4 93.8 125.4 91.4C127.5 89 129.4 86.1 131.3 82.8L130.3 82.3C128.4 85 126.4 87.4 124.2 89.6C122 91.7 119.3 93.6 116 95.1C113.6 96.3 111.1 97 108.5 97.4C105.9 97.8 103.1 98.1 100.2 98.1C94.4 97.6 89 96.2 83.8 93.8C78.6 91.4 74.5 87.8 71.5 82.8C69.6 79.8 68.3 76.6 67.6 73.4C66.9 70.2 66.5 66.9 66.5 63.6C66.5 61.5 66.6 59.4 66.9 57.4C67.2 55.4 67.7 53.2 68.3 50.9C68.2 50.9 68.2 50.9 68.3 50.8C72 49.7 75.7 49 79.3 48.6C83 48.2 86.8 48 90.9 48H94.4C98.6 48 102.6 48.3 106.3 48.8C110 49.3 113.7 50.1 117.3 51C120.9 51.9 124.5 53.1 128.1 54.5C131.7 55.9 135.5 57.3 139.3 58.9L139.8 57.8C132.2 53.9 124.9 50.8 117.7 48.5C110.6 46.2 102.9 44.5 94.7 43.6C93.1 43.4 91.4 43.3 89.7 43.2C88 43.1 86.4 43.1 84.7 43.1C79.9 43.1 75.2 43.5 70.8 44.2C73.8 37.2 77.9 31.1 82.9 25.8C88 20.5 93.7 16.2 100 12.7C106.4 9.2 113.3 6.7 120.7 4.9C128.1 3.2 135.8 2.3 143.7 2.3C149.7 2.3 155.8 2.9 161.9 4.1C168 5.3 174.1 6.8 180.1 8.7C186.1 10.6 192.1 12.7 198 15C203.9 17.4 209.6 19.7 215.2 22L220.1 24.1C213.9 24.1 208.1 25.8 202.6 29.2C197.1 32.6 191.8 37.1 186.8 42.8C182.4 47.8 178.1 53.5 174 59.8C170 66.5 166 73.1 162.1 80.1Z" fill="black"/>
<path d="M263.7 138.5C267.4 136.4 271.1 133.8 274.7 130.7C278.3 127.6 281.6 124.4 284.7 121C287.8 117.6 290.3 114.7 292.4 112.1L290.8 110.3C288.8 112.8 286.3 115.7 283.3 119C280.3 122.3 277 125.5 273.6 128.5C270.1 131.5 266.7 134 263.2 136.1C259.7 138.2 256.5 139.2 253.6 139.2C252.7 139.2 251.8 138.8 250.8 138.1C249.8 137.4 249.3 135.8 249.3 133.4C249.3 132 249.7 130.2 250.6 127.9C251.5 125.6 252.6 123.2 254.1 120.5C255.5 117.8 257.2 115 259.1 111.9C261 108.9 262.9 105.8 264.9 102.8C266.9 99.8 268.8 96.9 270.8 94C272.8 91.2 274.6 88.6 276.2 86.3L281.5 78.5L281.3 78.6C287.1 75.2 293.4 71.7 300 68C306.6 64.3 313.1 60.6 319.5 57C321.4 55.9 323.6 54.6 326.2 53C328.8 51.4 331.3 49.6 333.7 47.6C336.1 45.6 338.1 43.5 339.8 41.3C341.5 39.1 342.3 36.8 342.3 34.4C342.3 32.7 341.9 31.3 341.1 30.3C340.3 29.3 339.3 28.5 338 28C336.8 27.5 335.4 27.1 334 26.9C332.6 26.7 331.2 26.6 330 26.6C325.2 26.6 320.3 27.9 315.1 30.5C309.9 33.1 304.6 36.9 299.1 41.8C293.6 46.7 287.9 52.7 282.1 59.7C276.3 66.7 270.3 74.5 264.2 83.2C261.6 85.3 258.6 88.4 255.3 92.3C252 96.2 248.6 100.2 245.2 104.4L239.8 111.2L241.4 113C241.7 112.6 242.2 112.1 242.7 111.4C243.2 110.7 243.7 110.2 244 109.8V109.9L245.2 108.3L247.7 105.2C251.2 100.7 254.8 96.4 258.4 92.3C256.5 95.1 254.6 98.1 252.7 101.2C250.8 104.4 249 107.6 247.5 110.8C247.4 111 247.3 111.3 247.2 111.5L245.8 109.9C243.3 113.1 240.4 116.4 237.2 119.9C234 123.4 230.7 126.5 227.2 129.3C223.7 132.1 220 134.4 216.3 136.2C212.6 138 208.8 138.9 205.1 138.9C203.1 138.9 201.3 138.5 199.6 137.7C197.9 136.9 197.1 135.6 197.1 133.8C197.1 132.7 197.4 131.4 198 129.7C198.6 128.1 199.4 126.3 200.4 124.3C201.4 122.4 202.6 120.3 204 118.1C205.4 115.9 206.9 113.6 208.5 111.3C212.4 111.2 216.4 110.3 220.6 108.4C224.8 106.6 228.8 104.3 232.5 101.7C233.6 100.9 235 99.8 236.6 98.4C238.2 97 239.7 95.6 241.2 94C242.6 92.4 243.8 90.7 244.8 89C245.8 87.3 246.3 85.6 246.3 83.9C246.3 82.6 246 81.5 245.3 80.7C244.6 79.9 243.8 79.3 242.8 78.9C241.8 78.5 240.7 78.3 239.5 78.2C238.3 78.1 237.3 78 236.3 78C233.5 78 230.6 78.6 227.6 79.7C224.6 80.8 221.6 82.3 218.7 84.2C215.8 86.1 213 88.3 210.3 90.7C207.6 93.2 205.1 95.8 202.8 98.6C198.9 103.4 195.7 108.5 193.4 113.7C191.1 118.9 189.9 123.8 189.9 128.3C189.9 130.6 190.4 132.6 191.3 134.2C192.2 135.8 193.4 137.2 194.9 138.2C196.3 139.2 197.9 140 199.7 140.5C201.5 141 203.2 141.2 204.9 141.2C208.9 141.2 213 140.3 217 138.4C221 136.5 224.9 134.1 228.5 131.3C232.2 128.4 235.6 125.2 238.8 121.7C241.7 118.5 244.3 115.5 246.7 112.5C245.5 115.1 244.5 117.7 243.7 120.3C242.7 123.4 242.2 126.4 242.2 129.2C242.2 133.6 243.3 136.7 245.5 138.5C247.7 140.3 250.3 141.3 253.3 141.3C256.4 141.7 259.9 140.7 263.7 138.5ZM294.8 59.1C298.7 53.7 302.8 48.8 307.1 44.4C311.3 40 315.6 36.4 319.9 33.6C324.2 30.8 328.3 29.4 332.3 29.4C334 29.4 335.7 29.8 337.4 30.6C339.1 31.4 339.9 32.7 339.9 34.5C339.9 36.6 339.1 38.8 337.4 40.9C335.7 43 333.7 45 331.4 46.9C329.1 48.8 326.7 50.5 324.3 51.9C321.9 53.3 319.9 54.5 318.4 55.3C313.6 57.9 308.7 60.6 303.9 63.4C299.1 66.2 294.3 68.8 289.7 71.5H289.8L284 74.8C287.2 69.8 290.9 64.5 294.8 59.1ZM215.6 101.7C217.8 98.9 220.2 96.1 222.7 93.2C225.6 89.9 228.6 87.1 231.6 84.8C234.7 82.5 237.4 81.3 239.7 81.3C240.7 81.3 241.6 81.6 242.4 82.1C243.2 82.6 243.6 83.5 243.6 84.6C243.6 85.8 243.1 87.2 242.2 88.7C241.3 90.2 240.1 91.7 238.8 93.1C237.5 94.5 236.1 95.9 234.7 97.1C233.3 98.3 232 99.4 230.9 100.2C227.7 102.5 224.2 104.5 220.5 106.2C216.8 107.9 213.2 108.9 209.7 109.3C211.4 107 213.3 104.5 215.6 101.7Z" fill="black"/>
<path d="M320.2 141.9C321.5 140 322.7 138.2 323.9 136.4C325 134.6 326.2 133 327.2 131.5C329.7 127.8 332.3 124.1 335 120.4C337.6 116.7 340.1 113.2 342.5 110C344.8 106.8 347 103.8 348.9 101.1C350.8 98.4 352.4 96.2 353.6 94.4L365.6 78.7H349.7C345 85.6 341.2 91.1 338.4 95.3C335.5 99.5 333.2 102.8 331.6 105.2C329.9 107.6 328.7 109.4 327.8 110.5C327 111.6 326.2 112.6 325.6 113.4L323.6 115.9C322.5 117.3 321.5 118.7 320.5 120C319.5 121.3 318.4 122.6 317.2 123.8C313.5 128.2 309.8 131.8 306.2 134.8C302.6 137.8 299.1 139.2 295.7 139.2C294.5 139.2 294 138.7 294 137.6C294 136.7 294.3 135.5 295 134.1C295.7 132.7 296.5 131 297.5 129.2C298.5 127.4 299.7 125.4 301.1 123.3C302.5 121.2 303.9 119 305.4 116.8C309.8 110 313.6 103.9 316.6 98.6C319.6 93.3 321.2 88.9 321.2 85.4C321.2 83.3 320.6 81.7 319.5 80.5C318.3 79.3 316.7 78.7 314.7 78.7C313.5 78.7 312.1 79.3 310.5 80.4C308.9 81.6 307.3 83.1 305.5 85.1C303.7 87.1 301.8 89.4 299.8 91.9C297.8 94.5 295.7 97.3 293.5 100.2C292.2 101.9 290.8 103.8 289.2 105.7C287.7 107.7 286.2 109.6 284.8 111.4L286.4 113.2C287.9 111.3 289.4 109.4 290.9 107.3C292.4 105.3 293.9 103.4 295.3 101.6C297.4 98.8 299.5 96.2 301.4 93.7C303.3 91.2 305.1 89 306.8 87.1C308.4 85.2 309.9 83.7 311.2 82.7C312.5 81.6 313.5 81.1 314.2 81.1C314.8 81.1 315.1 81.4 315.1 82.1C315.1 82.8 314.7 83.9 313.9 85.2C313.1 86.6 312.1 88.1 310.9 89.8C309.7 91.5 308.4 93.3 306.8 95.2C305.3 97.1 303.8 99 302.3 100.8L296.8 107.7C294.9 110.1 293.1 112.4 291.5 114.8C289.9 117.1 288.4 119.4 287.1 121.6C285.8 123.8 284.8 125.9 284 127.9C283.3 129.9 282.9 131.7 282.9 133.3C282.9 135.8 283.8 137.8 285.7 139.3C287.5 140.8 290.8 141.6 295.5 141.6C297.5 141.6 299.4 141.2 301.4 140.4C303.4 139.6 305.3 138.4 307.3 136.9C309.3 135.4 311.2 133.7 313.2 131.7C315.2 129.7 317.1 127.6 319 125.3L319.4 124.8L318.3 126.4L310.5 139C309.3 141.1 307.9 143.3 306.5 145.6C305.1 147.9 303.6 150.3 302.1 152.7L296.6 154.4C294.5 155.1 292.2 155.9 289.7 156.8C287.2 157.7 284.7 158.6 282.2 159.6C279.7 160.6 277.1 161.8 274.6 163C272.1 164.2 269.6 165.5 267.3 166.9C264.2 168.8 261.4 170.8 259.1 173C256.8 175.2 254.8 177.3 253.1 179.2C251.5 181.2 250.1 183.4 249 186C247.9 188.5 247.3 191.1 247.3 193.6C247.3 196.6 248.3 198.9 250.3 200.6C252.3 202.3 254.6 203.1 257.3 203.1C259.8 203.1 262.1 202.7 264.4 202C266.7 201.3 268.9 200.3 271.1 199.1C273.2 197.9 275.3 196.6 277.2 195C279.1 193.5 281 191.9 282.7 190.4C285.6 187.8 288.4 184.9 291.2 181.7C294 178.5 296.7 175.2 299.3 171.8C301.9 168.4 304.5 164.9 306.9 161.3C309.3 157.7 311.7 154.3 314 150.9C317.9 149.3 321.9 147.2 326 144.9C330 142.5 333.9 139.9 337.7 137.1C341.5 134.3 345.1 131.3 348.5 128.1C352 124.9 355.1 121.8 357.9 118.5C358.4 117.9 358.9 117.3 359.5 116.7C360.1 116 360.6 115.4 361 114.7L363.2 111.9L361.6 110.1C360.8 111.2 359.9 112.3 358.8 113.6C357.8 114.8 356.8 116 356 117.1C350.8 123.2 344.8 128.8 338.1 134C331.3 139.2 324.2 143.5 316.7 146.9C317.6 145.7 318.2 144.8 318.6 144.3C319 143.8 319.5 143 320.2 141.9ZM289.9 171.4C286.3 176.6 282.8 181.2 279.3 185.3C278.1 186.8 276.6 188.4 274.9 190.2C273.2 192 271.3 193.7 269.4 195.3C267.4 196.9 265.4 198.2 263.2 199.2C261.1 200.3 258.9 200.8 256.8 200.8C254.7 200.8 252.9 200.1 251.6 198.8C250.3 197.4 249.6 195.8 249.6 193.9C249.6 191.4 250.2 189.1 251.3 186.9C252.4 184.7 253.7 182.7 255.1 180.9C256.7 179 258.6 177 261 175C263.3 172.9 266 171 268.8 169.2C273.6 166.2 278.3 163.9 283 162.1C287.7 160.3 292.6 158.6 297.5 157H297.3L298.4 156.8C298.6 156.7 298.9 156.7 299.2 156.6C299.5 156.6 299.8 156.5 300.1 156.3C296.8 161.2 293.5 166.3 289.9 171.4Z" fill="black"/>
<path d="M478 52.3C476.7 51.2 474.9 50.6 472.5 50.6C471 50.6 469.1 50.9 467.1 51.5C465 52.1 462.8 53 460.3 54.4C457.6 55.8 455.1 57.8 452.8 60.2C450.6 62.6 448.6 65.3 446.9 68.2C445.2 71.1 443.7 74.1 442.5 77.1C441.2 80.2 440.2 83.1 439.5 85.9L436.1 87.4C432 89.3 427.9 91.2 423.8 93.1C419.7 95.1 415.6 97.1 411.7 99.2C406.7 101.9 402.1 104.7 397.7 107.7C393.3 110.7 389.5 113.9 386.2 117.4C382.9 120.8 380.3 124.5 378.3 128.5C376.3 132.5 375.4 136.8 375.4 141.4C375.4 143.7 375.8 145.8 376.6 147.6C377.4 149.4 378.5 150.9 379.8 152.2C381.1 153.5 382.8 154.5 384.6 155.3C386.4 156.1 388.3 156.7 390.4 157.1C390.7 159 391.4 160.8 392.3 162.3C393.3 163.9 394.5 165.3 396.1 166.4C397.7 167.6 399.7 168.5 402 169.1C404.3 169.7 407 170.1 410.1 170.1C412.6 170.1 415 169.9 417.3 169.4C419.6 168.9 421.9 168.4 424.1 167.7C422.7 170.3 421 172.7 419 175C417 177.3 414.9 179.4 412.5 181.2C409.8 183.3 406.7 185.3 403.4 187C400 188.8 396.2 190.1 391.9 191.1L392 192.1C400.6 190.4 407.9 187.5 414 183.5C417.7 181 421 178.3 423.9 175.1C426.7 172 429.2 168.5 431.4 164.8C434.6 163.4 437.9 161.6 441.3 159.5C444.7 157.4 447.7 155.3 450.4 153C453.2 150.6 455.7 148.1 457.8 145.4C459.9 142.7 461.6 140 462.7 137.2L461.3 136.6C460.2 139.3 458.7 142 456.6 144.6C454.5 147.2 452.2 149.6 449.5 151.8C448.4 152.7 447.2 153.7 445.8 154.6C444.4 155.6 443 156.5 441.5 157.5C440 158.4 438.5 159.3 437 160.2C435.5 161.1 434 161.8 432.7 162.5C435.5 157 437.6 151.1 438.9 144.9C443.6 142.1 448 139 452.1 135.6C456.2 132.2 459.7 128.8 462.8 125.2C465.8 121.7 468.2 118.2 469.9 114.8C471.6 111.4 472.5 108.3 472.5 105.5C472.5 103.5 472.1 101.9 471.2 100.5C470.3 99.1 469.2 98 467.8 97.1C466.4 96.2 464.9 95.6 463.2 95.2C461.5 94.8 459.9 94.6 458.3 94.6C454.9 94.6 451.8 94.9 449 95.4C446.1 95.9 443.4 96.6 440.6 97.4C440.7 96 440.7 94.6 440.9 93.2C441 91.8 441.2 90.4 441.4 89C447 85.7 452.1 82.8 456.6 80C461.1 77.3 464.8 75 467.6 73C471.9 70 475.1 67.1 477 64.2C478.9 61.3 479.9 58.8 479.9 56.5C480 55 479.3 53.5 478 52.3ZM428.6 157.8C427.6 160.6 426.5 163.2 425.3 165.6C422.6 166.5 419.9 167.2 417.4 167.8C414.9 168.3 412.3 168.6 409.7 168.6C404.9 168.6 401.4 167.6 399.2 165.6C397 163.6 395.7 160.9 395.4 157.5H395.8C396.4 157.6 397 157.6 397.6 157.6C398.1 157.6 398.7 157.6 399.3 157.6C404.6 157.6 409.9 156.8 415.3 155.3C420.7 153.8 426 151.7 431.2 149.1C430.4 152.2 429.6 155.1 428.6 157.8ZM435.6 111.4C435.4 114.3 435.1 117.2 434.9 120.3C434.7 122.8 434.5 125.1 434.3 127.5C434.1 129.8 433.9 132.1 433.7 134.3C433.5 135.8 433.4 137.3 433.2 138.7C433 140.1 432.8 141.6 432.5 143.1C429.7 144.9 426.8 146.5 423.8 148.1C420.8 149.7 417.8 151.1 414.8 152.3C411.8 153.5 408.8 154.4 405.8 155.1C402.8 155.8 400 156.1 397.2 156.1C396.9 156.1 396.6 156.1 396.3 156.1C396 156.1 395.7 156.1 395.4 156.1V156C395.4 153.8 395.7 151.5 396.4 149C397.1 146.5 398 143.9 399.3 141.2C400.6 138.5 402.1 135.8 403.9 133C405.7 130.2 407.7 127.5 409.9 124.7C413.5 120.2 417.6 116 422.1 112.1C426.6 108.2 431.4 104.9 436.6 102.3C436.1 105.5 435.8 108.5 435.6 111.4ZM437.5 94.9C437.3 96.1 437.1 97.4 436.9 98.9C433.2 100.3 429.6 102.1 426.1 104.2C422.6 106.3 419.3 108.6 416.2 111C413.1 113.5 410.2 116.1 407.6 118.9C405 121.7 402.6 124.5 400.4 127.5C397.1 132 394.5 136.6 392.7 141.1C390.9 145.6 390 149.8 390 153.6C390 153.9 390 154.2 390 154.5C390 154.8 390 155.1 390 155.3C388.6 155 387.2 154.6 385.9 154.1C384.6 153.6 383.5 153 382.5 152.2C381.5 151.4 380.7 150.5 380.1 149.5C379.5 148.5 379.2 147.3 379.2 145.9C379.2 141.8 380.5 137.8 383.1 133.7C385.7 129.6 389.2 125.6 393.5 121.6C396.5 118.8 399.8 116.1 403.4 113.4C407 110.7 410.7 108.1 414.5 105.5C418.3 102.9 422.3 100.4 426.3 98C430.3 95.6 434.2 93.2 438.1 91C438 92.4 437.7 93.7 437.5 94.9ZM449.4 97.5C452.3 96.7 455.3 96.3 458.3 96.3C459.5 96.3 460.7 96.4 461.9 96.6C463 96.8 464.1 97.1 464.9 97.6C465.8 98.1 466.5 98.7 467 99.5C467.5 100.3 467.8 101.3 467.8 102.4C467.8 104.5 467.1 106.9 465.7 109.8C464.3 112.6 462.3 115.6 459.9 118.7C457.4 121.8 454.5 125 451.1 128.2C447.7 131.4 444.1 134.5 440.2 137.5C440.6 134.9 440.8 132.3 441 129.7C441.2 127.1 441.2 124.4 441.2 121.6C441.2 119.8 441.2 118.1 441.1 116.5C441 114.8 440.9 113.2 440.8 111.6C440.7 110.1 440.6 108.5 440.6 107.1C440.5 105.6 440.5 104.1 440.5 102.6V100.4C443.5 99.3 446.5 98.3 449.4 97.5ZM473.9 65.1C472.5 67.4 470.1 69.7 466.7 72C463.6 74.1 460 76.2 455.8 78.2C451.6 80.2 447.1 82.4 442.2 84.6C442.7 82.2 443.5 79.6 444.6 76.8C445.7 74 447 71.3 448.6 68.6C450.2 65.9 452 63.4 454.1 61.1C456.2 58.8 458.4 56.9 460.9 55.5C464.1 53.8 466.9 53 469.4 53C471.5 53 473.1 53.5 474.3 54.6C475.5 55.7 476.1 57.1 476.1 58.8C476.1 60.7 475.4 62.8 473.9 65.1Z" fill="black"/>
<path d="M645.9 163.8C640.8 166.2 635.4 167.4 629.9 167.4C625.1 167.4 620.2 166.6 615.4 165.1C610.6 163.6 605.9 161.6 601.4 159.2C596.9 156.8 592.5 154.2 588.4 151.4C584.3 148.6 580.3 145.9 576.6 143.3H576.5C581.9 140.9 586.6 138.1 590.5 134.9C594.4 131.7 598 128.2 601.1 124.5C604.2 120.7 607.1 116.6 609.8 112.2C612.5 107.8 615.2 103 618 97.9C618.3 97.2 618.7 96.5 619.1 95.8C619.5 95.1 619.9 94.4 620.3 93.7C624.8 92.4 629.4 90.8 634.1 89.1C638.8 87.3 643.4 85.4 648.1 83.2C652.7 81.1 657.3 78.8 661.8 76.4C666.3 74 670.6 71.4 674.7 68.8C677.4 67.1 680.2 65.2 683 63.3C685.8 61.3 688.5 59.3 691.2 57.3C693.9 55.2 696.4 53.2 698.8 51.1C701.2 49 703.3 47.1001 705.2 45.2001C711.6 38.8001 716.3 32.8 719.3 27.3C722.3 21.8 723.8 17 723.8 12.9C723.8 9.10005 722.6 6.20005 720.2 4.00005C717.8 1.90005 714.4 0.800049 710 0.800049C705.8 0.800049 701.5 1.60005 697.2 3.10005C692.8 4.60005 688.5 6.60005 684.2 9.10005C679.9 11.6 675.7 14.5 671.5 17.8C667.4 21.1 663.4 24.5 659.7 28C656 31.5 652.5 35.0001 649.2 38.4001C646 41.9001 643.1 45.1 640.6 48C637.7 51.4 634.9 54.8001 632.2 58.4001C629.4 61.9001 626.8 65.4 624.2 68.9C621.6 72.4 619.1 75.8 616.7 79.1C614.3 82.4 612.1 85.4 610 88.2L605.4 94.6C602.5 95.1 599.6 95.5 596.6 95.8C593.6 96.1 590.5 96.2 587.4 96.2C583.3 96.2 579.2 95.9 575 95.3C570.9 94.7 566.8 93.7 563 92.3C559.1 90.9 555.5 89.2 552.2 87.1C548.9 85 545.9 82.3 543.4 79.2C539.2 73.8 537.1 67.7 537.1 61C537.1 55.6 538.2 50.5001 540.4 45.9001C542.6 41.3001 545.3 37 548.5 33.1C551.8 29.2 555.4 25.7 559.5 22.9C563.5 20 567.8 17.6 572.3 15.7C576.8 13.8 581.5 12.3 586.2 11.4C591 10.5 595.7 10 600.5 10C603.9 10 607.5 10.2 611.5 10.7L611.7 9.50005C608.2 8.60005 604.8 8.00005 601.7 7.60005C598.5 7.20005 595.3 7.00005 591.9 7.00005C587.2 7.00005 582.6 7.50005 578 8.50005C573.4 9.50005 569 10.9 564.8 12.8C560.6 14.6 556.7 16.9 553 19.6C549.3 22.3001 546 25.3 543 28.5C539.1 32.9 535.9 37.9001 533.5 43.4001C531.1 48.9001 529.9 54.4 529.9 60.1C529.9 64.9 530.6 69.1 532.1 72.9C533.6 76.6 535.8 80.1 538.8 83.3C541.5 86.1 544.6 88.5 548.1 90.4C551.6 92.4 555.3 94 559.3 95.3C563.2 96.6 567.4 97.5 571.6 98.1C575.9 98.7 580.1 99 584.3 99C591 99 597.4 98.5 603.5 97.5L602.4 99C600.2 102 597.9 105 595.6 108.1C593.3 111.2 590.9 114.3 588.3 117.2C585.2 121 581.9 124.6 578.5 128C575.1 131.5 571.6 134.6 568.1 137.5L564.6 135.3C561.3 133.2 557.9 131.2 554.5 129.3C551 127.4 547.5 125.8 543.9 124.4C540.3 123 536.5 121.9 532.7 121.1C528.8 120.3 524.9 119.9 520.9 119.9C515.7 119.9 511.3 120.3 507.7 121.1C504 121.9 501 123 498.7 124.2C496.4 125.5 494.7 127 493.6 128.6C492.5 130.3 492 132 492 133.7C492 136 492.9 138.3 494.7 140.6C496.5 142.9 499.1 145 502.4 146.8C505.7 148.6 509.7 150.1 514.4 151.3C519.1 152.4 524.3 153 529.9 153C533.4 153 537.1 152.8 541 152.4C544.9 152 548.7 151.4 552.5 150.7C556.3 150 560.1 149.1 563.7 148C567.4 146.9 570.7 145.7 573.9 144.4C575.8 145.8 577.7 147.3 579.6 148.9C581.5 150.5 583.4 152.1 585.3 153.6C588.6 156.3 591.9 159 595.2 161.7C598.5 164.4 602 166.7 605.5 168.8C609 170.9 612.7 172.5 616.5 173.8C620.3 175.1 624.3 175.7 628.5 175.7C632.1 175.7 635.5 175.2 638.6 174.1C641.7 173 644.7 171.6 647.4 169.8C650.2 168 652.7 165.9 655.1 163.5C657.5 161.1 659.7 158.5 661.9 155.9L661 155C656.1 158.4 651 161.4 645.9 163.8ZM631.7 73.1C635.7 66.3 640.3 59.2 645.7 51.8C647.8 48.8 650.4 45.6001 653.3 41.9001C656.2 38.3001 659.4 34.7 662.9 31.1C666.4 27.5001 670 24.0001 673.9 20.6C677.8 17.2 681.7 14.2 685.8 11.6C689.9 9.00005 694 6.90005 698.1 5.30005C702.2 3.70005 706.3 2.90005 710.4 2.90005C714.1 2.90005 716.9 3.80005 718.8 5.50005C720.7 7.20005 721.7 9.60005 721.7 12.8C721.7 16.5 720.2 21.0001 717.3 26.2001C714.4 31.5001 709.8 37.2 703.7 43.3C698.6 48.3 693.3 52.8001 687.9 56.9001C682.5 60.9001 677.7 64.3 673.6 66.9C665.5 72 657.2 76.6 648.5 80.6C639.8 84.7 631 88 622 90.6C624.5 85.8 627.8 79.9 631.7 73.1ZM549.4 147.8C543.5 149.7 537.2 150.6 530.4 150.6C525.1 150.6 520.4 150.1 516.5 149.1C512.6 148.1 509.4 146.8 506.9 145.3C504.4 143.7 502.5 142 501.3 140.1C500.1 138.2 499.5 136.2 499.5 134.2C499.5 132.6 500 131.1 500.9 129.6C501.8 128.1 503.2 126.8 505 125.7C506.8 124.6 509.1 123.7 511.8 123.1C514.5 122.4 517.7 122.1 521.3 122.1C525 122.1 528.7 122.5 532.5 123.4C536.2 124.3 539.9 125.4 543.5 126.7C547.1 128.1 550.6 129.6 554.1 131.4C557.6 133.2 560.8 135.1 563.8 136.9L566.5 138.6C560.9 142.9 555.3 145.9 549.4 147.8Z" fill="black"/>
<path d="M708.1 112.2L706.5 110.4C704.9 112.5 703.1 114.7 701.3 116.7C699.5 118.8 697.8 120.7 696.1 122.6C694 124.9 691.8 127.1 689.6 129.1C687.4 131.1 685.3 132.9 683.2 134.3C681.1 135.7 679.1 136.9 677.2 137.8C675.3 138.6 673.6 139 672 139C670.5 139 669.5 138.8 669 138.4C668.5 138 668.3 137.4 668.3 136.7C668.3 135.8 668.6 134.7 669.1 133.4C669.6 132.1 670.3 130.8 671 129.5C671.7 128.2 672.5 126.9 673.3 125.6C674.1 124.3 674.9 123.2 675.5 122.3C678.4 118.1 681.3 113.9 684.3 109.8C687.3 105.7 690.4 101.5 693.5 97.3C694.9 95.4 696.3 93.5 697.8 91.7C699.3 89.9 700.7 88 702.1 86.1L707.7 78.8H691.9C690.7 80 689 81.8 686.8 84.2C684.7 86.6 682.3 89.3 679.8 92.3C677.3 95.3 674.6 98.5 671.9 101.9C669.1 105.3 666.5 108.5 664 111.6L665.6 113.4L672.9 104.4C674.6 102.3 676.4 100.1 678.1 97.9C679.9 95.7 681.6 93.6 683.3 91.6C681 95.1 679 98.1 677.4 100.6C675.8 103.1 674.4 105.4 673.2 107.4C672 109.4 670.9 111.2 670 112.9C669.1 114.5 668.1 116.2 667.2 118C665.8 120.5 664.5 123.3 663.3 126.2C662.1 129.1 661.5 131.8 661.5 134.1C661.5 136.2 662.2 138 663.5 139.4C664.8 140.8 667.4 141.5 671.2 141.5C673 141.5 675 141 677.1 140.1C679.2 139.2 681.4 138 683.7 136.5C686 135 688.3 133.2 690.6 131C692.9 128.9 695.3 126.6 697.6 124.1C699.2 122.3 700.9 120.3 702.7 118.2C704.8 116.2 706.4 114.1 708.1 112.2Z" fill="black"/>
<path d="M704.1 56.2C702.9 57.3 702.3 58.6 702.3 60.3C702.3 61.9 702.9 63.3 704.1 64.4C705.3 65.5 706.7 66.1 708.5 66.1C710.2 66.1 711.7 65.5 712.9 64.4C714.1 63.3 714.7 61.9 714.7 60.3C714.7 58.7 714.1 57.3 712.9 56.2C711.7 55.1 710.3 54.6 708.5 54.6C706.7 54.6 705.3 55.1 704.1 56.2Z" fill="black"/>
<path d="M740.9 124.5C740.9 127.4 741.5 129.6 742.6 131.1C743.7 132.6 745.2 133.4 747.2 133.4C749.7 133.4 752.6 132.4 755.8 130.4C759 128.4 762.1 126.1 765.1 123.5C767.2 121.6 769.2 119.7 771.1 117.6C773 115.6 774.6 113.8 775.8 112.1L774.2 110.3C773 111.8 771.6 113.5 769.7 115.5C767.9 117.5 765.9 119.4 763.8 121.3C762.4 122.5 760.9 123.7 759.4 124.9C757.9 126.1 756.4 127.1 755 128C753.6 128.9 752.2 129.6 750.9 130.2C749.6 130.8 748.4 131.1 747.3 131.1C744.5 131.1 743.1 128.9 743.1 124.6C743.1 123.9 743.1 123.3 743.2 122.9C745.9 120.7 748.7 117.9 751.5 114.6C754.3 111.3 756.9 107.9 759.3 104.4C761.3 101.4 763.1 98.2 764.8 94.7C766.5 91.2 767.5 87.6 767.6 83.9C767.6 82.7 767.4 81.6 767.1 80.8C766.8 79.9 766.1 79.5 765.1 79.5C764.4 79.5 763.8 79.7 763.1 80.1C762.4 80.5 761.7 81 761 81.6C759.3 83.2 757.4 85.5 755.3 88.5C753.2 91.5 751.3 94.6 749.5 98C747 102.5 745 106.9 743.5 111.1C741.9 115.3 741 118.8 740.8 121.6C737.9 124.2 734.8 126.9 731.4 129.5C728 132.2 724.7 134.4 721.6 136.1C720.4 136.8 719 137.5 717.2 138.3C715.4 139.1 713.8 139.5 712.2 139.5C711.5 139.5 710.9 139.4 710.4 139.2C709.9 139 709.6 138.5 709.6 137.8C709.6 137.1 709.9 136 710.5 134.7C711.1 133.4 711.8 131.9 712.7 130.2C713.6 128.5 714.7 126.7 715.9 124.8C717.1 122.9 718.4 121 719.7 119L723 114.1C724.7 111.5 726.4 108.8 728.1 106.2C729.8 103.5 731.3 101 732.5 98.5C733.8 96 734.8 93.7 735.6 91.5C736.4 89.3 736.8 87.4 736.8 85.6C736.8 83.5 736.3 81.9 735.3 80.6C734.3 79.3 732.8 78.7 730.6 78.7C728.5 78.7 726.3 80 723.9 82.5C721.5 85 718.8 88.1 716 91.7C714.6 93.4 713.1 95.3 711.6 97.2C710.1 99.2 708.5 101.2 706.9 103.4L700.4 111.8L702 113.6L709.6 103.7L717.9 93.2C720.7 89.7 723.1 86.8 725.2 84.6C727.3 82.4 728.8 81.3 729.8 81.3C730.2 81.3 730.5 81.4 730.5 81.7C730.6 81.9 730.6 82.2 730.6 82.3C730.6 83 730.2 84.1 729.4 85.4C728.6 86.8 727.6 88.3 726.4 90C725.2 91.7 723.9 93.5 722.3 95.4C720.8 97.3 719.3 99.2 717.8 101L712.3 107.9C710.5 110.2 708.7 112.5 707.1 114.8C705.4 117.1 703.9 119.3 702.7 121.5C701.4 123.6 700.4 125.7 699.6 127.7C698.8 129.7 698.4 131.4 698.4 133C698.4 135.6 699.3 137.8 701.2 139.4C703.1 141 706.5 141.9 711.3 141.9C713.3 141.9 715.2 141.5 717.1 140.7C719 139.9 720.8 138.9 722.6 137.9C725.6 136.3 728.6 134.2 731.7 131.9C735.1 129.2 738.1 126.9 740.9 124.5Z" fill="black"/>
<path d="M842.2 113.8C841.2 115 840.2 116.2 839.4 117.3C834.2 123.4 828.2 129 821.5 134.2C814.7 139.4 807.6 143.7 800.1 147.1C801 145.9 801.6 145 802 144.5C802.4 144 802.9 143.1 803.5 142C804.8 140.1 806 138.3 807.2 136.5C808.3 134.7 809.5 133.1 810.5 131.6C813 127.9 815.6 124.2 818.3 120.5C820.9 116.8 823.4 113.3 825.8 110.1C828.1 106.9 830.3 103.9 832.2 101.2C834.1 98.5 835.7 96.3 836.9 94.5L848.9 78.8H833C828.3 85.7 824.5 91.2 821.7 95.4C818.8 99.6 816.5 102.9 814.9 105.3C813.2 107.7 812 109.5 811.1 110.6C810.3 111.7 809.5 112.7 808.9 113.5L806.9 116C805.8 117.4 804.8 118.8 803.8 120.1C802.8 121.4 801.7 122.7 800.5 123.9C796.8 128.3 793.1 131.9 789.5 134.9C785.9 137.9 782.4 139.3 779 139.3C777.8 139.3 777.3 138.8 777.3 137.7C777.3 136.8 777.6 135.6 778.3 134.2C779 132.8 779.8 131.1 780.8 129.3C781.8 127.5 783 125.5 784.4 123.4C785.8 121.3 787.2 119.1 788.7 116.9C793.1 110.1 796.9 104 799.9 98.7C802.9 93.4 804.5 89 804.5 85.5C804.5 83.4 803.9 81.8 802.8 80.6C801.6 79.4 800 78.8 798 78.8C796.8 78.8 795.4 79.4 793.8 80.5C792.2 81.7 790.6 83.2 788.8 85.2C787 87.2 785.1 89.5 783.1 92C781.1 94.6 779 97.4 776.8 100.3C775.5 102 774.1 103.9 772.5 105.8C771 107.8 769.5 109.7 768.1 111.5L769.7 113.3C771.2 111.4 772.7 109.5 774.2 107.4C775.7 105.4 777.2 103.5 778.6 101.7C780.7 98.9 782.8 96.3 784.7 93.8C786.6 91.3 788.4 89.1 790.1 87.2C791.7 85.3 793.2 83.8 794.5 82.8C795.8 81.7 796.8 81.2 797.5 81.2C798.1 81.2 798.4 81.5 798.4 82.2C798.4 82.9 798 84 797.2 85.3C796.4 86.7 795.4 88.2 794.2 89.9C793 91.6 791.7 93.4 790.1 95.3C788.6 97.2 787.1 99.1 785.6 100.9L780.1 107.8C778.2 110.2 776.4 112.5 774.8 114.9C773.2 117.2 771.7 119.5 770.4 121.7C769.1 123.9 768.1 126 767.3 128C766.6 130 766.2 131.8 766.2 133.4C766.2 135.9 767.1 137.9 769 139.4C770.8 140.9 774.1 141.7 778.8 141.7C780.8 141.7 782.7 141.3 784.7 140.5C786.7 139.7 788.6 138.5 790.6 137C792.6 135.5 794.5 133.8 796.5 131.8C798.5 129.8 800.4 127.7 802.3 125.4L802.7 124.9L801.6 126.5L793.8 139.1C792.6 141.2 791.2 143.4 789.8 145.7C788.4 148 786.9 150.4 785.4 152.8L779.9 154.5C777.8 155.2 775.5 156 773 156.9C770.5 157.8 768 158.7 765.5 159.7C763 160.7 760.4 161.9 757.9 163.1C755.4 164.3 752.9 165.6 750.6 167C747.5 168.9 744.7 170.9 742.4 173.1C740.1 175.3 738.1 177.4 736.4 179.3C734.8 181.3 733.4 183.5 732.3 186.1C731.2 188.6 730.6 191.2 730.6 193.7C730.6 196.7 731.6 199 733.6 200.7C735.6 202.4 737.9 203.2 740.6 203.2C743.1 203.2 745.4 202.8 747.7 202.1C750 201.4 752.2 200.4 754.4 199.2C756.5 198 758.6 196.7 760.5 195.1C762.4 193.6 764.3 192 766 190.5C768.9 187.9 771.7 185 774.5 181.8C777.3 178.6 780 175.3 782.6 171.9C785.2 168.5 787.8 165 790.2 161.4C792.6 157.8 795 154.4 797.3 151C801.2 149.4 805.2 147.3 809.3 145C813.3 142.6 817.2 140 821 137.2C824.8 134.4 828.4 131.4 831.8 128.2C835.3 125 838.4 121.9 841.2 118.6C841.7 118 842.2 117.4 842.8 116.8C843.4 116.1 843.9 115.5 844.3 114.8L846.5 112L844.9 110.2C844.2 111.4 843.3 112.5 842.2 113.8ZM773.3 171.4C769.7 176.6 766.2 181.2 762.7 185.3C761.5 186.8 760 188.4 758.3 190.2C756.6 192 754.7 193.7 752.8 195.3C750.8 196.9 748.8 198.2 746.6 199.2C744.5 200.3 742.3 200.8 740.2 200.8C738.1 200.8 736.3 200.1 735 198.8C733.7 197.4 733 195.8 733 193.9C733 191.4 733.6 189.1 734.7 186.9C735.8 184.7 737.1 182.7 738.5 180.9C740.1 179 742 177 744.4 175C746.7 172.9 749.4 171 752.2 169.2C757 166.2 761.7 163.9 766.4 162.1C771.1 160.3 776 158.6 780.9 157H780.7L781.8 156.8C782 156.7 782.3 156.7 782.6 156.6C782.9 156.6 783.2 156.5 783.5 156.3C780.3 161.2 776.9 166.3 773.3 171.4Z" fill="black"/>
</svg>
