<svg width="473" height="303" viewBox="0 0 473 303" fill="none" xmlns="http://www.w3.org/2000/svg">
<path d="M472.1 47.2999C457.1 27.4999 406.8 7.79994 345.7 21.9999C251.5 43.8999 174.1 144 68.9 145.2C-18.4 146.2 -27.4 53.1999 72.1 13.5999C139 -13.1001 286 -3.00006 325.7 92.9999C355.9 166 291.5 210.2 209.3 214.6C42.3 223.6 14.3 38.5999 171.9 50.7999C262.4 57.7999 286.8 120 366.2 131.7C455.7 144.9 463.2 80.6999 410.7 61.9999C373.6 48.7999 314.8 63.6999 278 86.9999C148.4 168.9 183.4 329.7 273.1 296.3C306.3 283.9 305.7 235.1 269.1 236.1C245.1 236.8 242.5 262.4 255.6 270.2C259.7 272.7 264.8 272.2 260.3 272.3C237.5 271.5 236.4 231.3 268.9 229.4C319.1 226.6 316.6 303.6 250.9 302C156.8 299.7 166.2 132.3 269.3 72.4999C315.2 45.8999 379.3 41.4999 413.2 55.5999C463.6 76.4999 461.5 134.8 392.2 140.4C293.9 148.3 240.5 66.5999 150.3 63.3999C38.5 59.4999 45 200.2 196.8 203C407.1 206.9 344.9 17.1999 136.8 13.0999C-25.7 9.89994 -22.8 144.6 61.8 139.3C177.2 132.2 208.9 32.9999 343.8 10.6999C389.9 3.29994 453 14.3999 472.1 47.2999Z" fill="#1D1D1B"/>
</svg>
