<svg width="456" height="452" viewBox="0 0 456 452" fill="none" xmlns="http://www.w3.org/2000/svg">
<path d="M249.2 61.5C232.5 63 214 47 215.7 29.5C217.7 8.50003 242.8 -4.99998 266.5 2.30002C328.6 21.3 297.8 166.9 133.2 156.7C28.0999 150.1 30.2 76.2 96.1 69.3C208.1 57.5 300.8 227.4 401.3 224.9C474.4 223.1 461.5 150.5 402.2 148.5C291 144.7 145.3 295.9 39.4999 264.6C-13.9001 248.8 -11.7 195.3 39.6 180.8C140.3 152.5 259 339.9 334 322.3C372.9 313.2 369.7 256.3 295.8 256.2C149.8 256 133.3 429.5 215.3 445.2C288.4 459.2 294.3 366.4 236.9 365.6C213.7 365.3 195.8 382.8 206.2 413C186.1 397.5 192.6 360.5 224.9 353.4C238.4 350.5 256.8 354.1 268.3 366.3C296.8 396.7 276.8 459.9 214.3 450C129.4 436.6 132 278.5 245.5 251C279.6 242.7 333.8 245 355.4 272.5C372 293.7 361.3 320.8 335.3 328C274.9 344.7 182.5 249.7 119.2 207.3C4.29985 130.1 -46.3002 267.2 69.3998 261C141.6 257.1 273.3 138.3 394.9 141.3C463.3 143 483.8 223.5 401.3 230.2C286.9 239.4 197.5 66.6 96.1999 73.8C19.6999 79.2 39.4998 177.2 194.4 138.8C300.4 112.5 309.4 20.2 265.2 5.20004C243.7 -2.09996 222.3 16.2 221.5 32.1C221.9 46.6 235.6 59.4 249.2 61.5Z" fill="#1D1D1B"/>
</svg>
