<svg width="538" height="217" viewBox="0 0 538 217" fill="none" xmlns="http://www.w3.org/2000/svg">
<path d="M260.1 174.1C295.1 169.4 291.8 130.3 254.4 130.9C193.3 131.8 196.1 226.3 274.7 208.3C357.3 189.4 371.5 42.4001 243.4 16.0001C219 11.0001 171.6 10.5001 139.6 19.2001C75.5001 36.5001 69.4 88.0001 103.3 112C190.3 173.5 365.4 -18.3999 497.9 25.4001C568 48.6001 560.4 159.8 351.5 109C220 76.9001 153 9.70009 67 25.7001C-31.1 43.9001 2.7 168.1 97.8 155.3C100.8 154.9 107.5 153.6 109.5 151.3C105.1 160 58.0999 172 25.6999 145.8C-19.2001 109.5 -9.7 19.6001 94.8 15.8001C209.5 11.6001 359.1 130 482.1 113.4C578.5 100.4 540.7 -45.5999 322.5 74.6001C260.9 108.5 156.2 161.3 100 116.5C73.8 95.6001 70.7999 60.8001 97.8999 34.1001C138.5 -5.79992 245.7 -14.7999 302.8 32.6001C368.5 87.1001 350.5 203.6 276.1 215.1C201.8 226.5 188.9 150.2 231.7 127.9C244.7 121.1 262.3 120.5 275 126.8C300.5 139.5 293.9 177.3 260.1 174.1Z" fill="#1D1D1B"/>
</svg>
