<svg width="544" height="246" viewBox="0 0 544 246" fill="none" xmlns="http://www.w3.org/2000/svg">
<path d="M155.1 102.9C224.2 87.9999 302.2 149.1 303.3 212.2C304 251.5 262.9 250.8 249.3 236.3C223 208 261.4 102.2 359.3 70.3999C452.9 39.9999 480.1 91.2999 455.9 113C442.8 124.7 420.9 124.2 403.6 123C294.2 115.8 222.1 16.9999 116.5 10.6999C-16.9999 2.79992 -27.4999 144.9 68.8001 165.2C152.2 182.7 241.7 91.8999 345 39.1999C552.9 -67.1001 610.9 158.5 456.6 178.2C295.6 198.9 211.2 27.9999 108.7 51.2999C71.4 59.7999 57.9 97.9999 75.7 117.6C88.9 132.1 120.5 125.9 119.4 106.4C118.9 96.6999 112.8 92.7999 105.2 89.1999C133.2 78.0999 142.8 135.7 96.8001 133.6C46.7001 128.5 53.3001 51.5999 119.5 41.8999C235.5 24.9999 317.3 181.9 461.9 169C562.3 160 574.2 22.4999 447.4 19.1999C347.6 16.5999 221.5 172.5 97.5001 175C-40.0999 177.7 -39.1998 -26.2001 153.6 3.79992C252 19.0999 367.5 135.6 442.1 114.8C472.7 106.3 462.6 66.2999 420.2 67.2999C307.7 69.9999 231.4 183.6 247.5 226.5C253.9 243.4 274.8 243.7 284.3 239.5C317.4 224.7 281.7 154.7 212.8 121.4C189.8 110 171.3 106.4 155.1 102.9Z" fill="#1D1D1B"/>
</svg>
